<svg width="402" height="60" viewBox="0 0 402 60" fill="none" xmlns="http://www.w3.org/2000/svg">
<path d="M25.9985 20.3306L51.5461 20.0638C52.0796 19.9051 52.4936 19.4797 52.6362 18.9415C52.7811 18.4033 52.6362 17.8283 52.2544 17.4235L37.6752 2.84428C35.2879 0.776643 31.9346 0.233861 29.016 1.44362C26.0974 2.65338 24.1148 5.411 23.894 8.5642L23.7767 18.1043C23.9239 19.2658 24.8393 20.1834 25.9985 20.3306Z" fill="#1B60CA"/>
<path d="M6.20298 41.5153C6.05809 42.0558 6.20298 42.6307 6.58707 43.0355L21.1686 57.6148C23.5559 59.6847 26.9092 60.2275 29.8278 59.0154C32.7464 57.8034 34.7313 55.0458 34.9521 51.8948L35.0671 42.3547C34.9199 41.191 34.0022 40.2779 32.8407 40.1284L7.29545 40.3929C6.75956 40.5516 6.34558 40.9771 6.20298 41.5153Z" fill="#1B60CA"/>
<path d="M40.7112 53.4426C41.2494 53.5875 41.8243 53.4426 42.2291 53.0608L56.8084 38.4816C58.876 36.0943 59.4188 32.741 58.209 29.8224C56.9993 26.9038 54.2417 24.9212 51.0885 24.7004L41.5484 24.5831C40.3846 24.7326 39.4692 25.648 39.322 26.8049L39.5888 52.3525C39.7475 52.886 40.173 53.3 40.7112 53.4426Z" fill="#1B60CA"/>
<path d="M18.1374 7.0095C17.5969 6.8646 17.0219 7.0095 16.6171 7.39359L2.03787 21.9728C-0.0320641 24.3602 -0.574846 27.7134 0.637216 30.6321C1.84928 33.5507 4.60689 35.5355 7.75779 35.7563L17.2979 35.8736C18.4594 35.7264 19.3747 34.811 19.5242 33.6473L19.2597 8.10196C19.101 7.56608 18.6755 7.15209 18.1374 7.0095Z" fill="#1B60CA"/>
<path fill-rule="evenodd" clip-rule="evenodd" d="M52.6409 18.854C52.6754 18.7298 52.6915 18.6033 52.6961 18.4792C52.6846 18.0905 52.5328 17.7156 52.2591 17.4258L37.6799 2.84654C35.2902 0.77661 31.9369 0.236126 29.0206 1.44589C26.1135 2.65335 24.1333 5.39486 23.901 8.53426C23.9355 8.51816 23.97 8.50436 24.0068 8.48827C26.9254 7.2785 30.2787 7.82129 32.666 9.88892L42.8478 20.0707L51.553 19.981C52.0843 19.8177 52.496 19.3922 52.6409 18.854Z" fill="url(#paint0_linear_301_16)"/>
<path fill-rule="evenodd" clip-rule="evenodd" d="M6.18455 42.2764C6.18685 42.281 6.18685 42.2879 6.18915 42.2925C6.19145 42.304 6.19375 42.3132 6.19605 42.3247C6.19835 42.3385 6.20295 42.35 6.20755 42.3638C6.20755 42.3661 6.20985 42.3707 6.20985 42.373C6.26044 42.5501 6.34094 42.718 6.45134 42.8698L6.45364 42.8721C6.46054 42.8813 6.46744 42.8905 6.47434 42.8997C6.47894 42.9043 6.48124 42.9089 6.48584 42.9135C6.49044 42.9181 6.49504 42.925 6.49964 42.9296C6.50654 42.9388 6.51344 42.9457 6.52034 42.9549C6.52264 42.9572 6.52264 42.9572 6.52494 42.9595C6.54564 42.9848 6.56863 43.0101 6.59163 43.0331L17.6382 54.0797L21.1709 57.6124C23.5605 59.6823 26.9138 60.2228 29.8301 59.013C29.9658 58.9555 30.1015 58.8957 30.2349 58.8336C30.2441 58.829 30.2533 58.8244 30.2625 58.8198C30.297 58.8037 30.3315 58.7876 30.366 58.7692C30.3844 58.76 30.4028 58.7508 30.4212 58.7416C30.4465 58.7278 30.4718 58.7163 30.4971 58.7025C30.5247 58.6887 30.5523 58.6726 30.5799 58.6588C30.596 58.6496 30.6098 58.6427 30.6259 58.6335C30.6627 58.6128 30.6995 58.5921 30.7363 58.5714C30.7409 58.5691 30.7455 58.5668 30.7524 58.5622C33.1535 57.2007 34.745 54.719 34.952 51.9246C34.9175 51.9407 34.883 51.9545 34.8462 51.9706C31.9276 53.1804 28.5743 52.6376 26.187 50.57L15.9132 40.3031L7.29541 40.3928C6.75953 40.5515 6.34784 40.9793 6.20295 41.5152C6.13395 41.7682 6.13165 42.028 6.18455 42.2764Z" fill="url(#paint1_linear_301_16)"/>
<path fill-rule="evenodd" clip-rule="evenodd" d="M58.0296 29.3601C58.0273 29.3555 58.025 29.3532 58.025 29.3486C58.0066 29.3095 57.9859 29.2681 57.9652 29.229C57.9606 29.2198 57.956 29.2129 57.9537 29.2037C57.9353 29.1692 57.9169 29.1324 57.8985 29.0979C57.8916 29.0841 57.8847 29.0703 57.8755 29.0565C57.8594 29.0266 57.8456 28.999 57.8295 28.9691C57.818 28.9507 57.8088 28.93 57.7973 28.9116C57.7835 28.8886 57.772 28.8656 57.7582 28.8426C57.7444 28.8173 57.7306 28.7943 57.7168 28.769C57.7076 28.7506 57.6961 28.7345 57.6869 28.7161C57.6708 28.6862 57.6524 28.6586 57.634 28.6287C57.6271 28.6172 57.6179 28.6034 57.611 28.5919C57.5903 28.5574 57.5696 28.5252 57.5489 28.4907C57.5443 28.4838 57.5397 28.4769 57.5351 28.47C57.5098 28.4309 57.4868 28.3941 57.4615 28.3573C57.4592 28.355 57.4592 28.3527 57.4569 28.3504C56.0493 26.2276 53.7218 24.8361 51.1229 24.6429C51.139 24.6774 51.1528 24.7119 51.1689 24.7487C52.3786 27.6673 51.8359 31.0206 49.7682 33.408L39.5013 43.6748L39.591 52.2927C39.7497 52.8263 40.1752 53.2402 40.7134 53.3828C41.2516 53.5277 41.8266 53.3828 42.2314 53.0011L56.8106 38.4218C58.8805 36.0322 59.421 32.6789 58.2113 29.7626C58.1515 29.6292 58.0917 29.4935 58.0296 29.3601Z" fill="url(#paint2_linear_301_16)"/>
<path fill-rule="evenodd" clip-rule="evenodd" d="M0.637173 30.632C0.655572 30.678 0.676272 30.724 0.694671 30.7677C0.696971 30.77 0.69697 30.7746 0.69927 30.7769C0.717669 30.8183 0.736069 30.8597 0.754469 30.9034C0.759068 30.9126 0.763668 30.9241 0.768268 30.9333C0.784367 30.9678 0.800467 31.0023 0.816567 31.0368C0.828067 31.0598 0.837265 31.0805 0.848765 31.1035C0.860265 31.1242 0.869465 31.1472 0.880965 31.1679C0.897064 31.1978 0.913163 31.23 0.929263 31.2599C0.936162 31.2714 0.943063 31.2852 0.947663 31.2967C0.968362 31.3381 0.991361 31.3795 1.01206 31.4186C1.01206 31.4209 1.01436 31.4232 1.01436 31.4232C2.35982 33.8933 4.87824 35.5401 7.72325 35.7493C7.70715 35.7148 7.69335 35.6803 7.67725 35.6435C6.46749 32.7249 7.01027 29.3717 9.07791 26.9843L19.3448 16.7174L19.2551 8.09962C19.0964 7.56374 18.6686 7.15205 18.1327 7.00715C17.8981 6.94276 17.6543 6.93586 17.422 6.97955C17.422 6.97955 17.422 6.97955 17.4197 6.97955C17.4036 6.98185 17.3875 6.98645 17.3714 6.98875C17.3622 6.99105 17.353 6.99335 17.3438 6.99565C17.3369 6.99795 17.33 6.99795 17.3231 7.00025C17.1116 7.05315 16.9115 7.14975 16.7344 7.28775C16.7344 7.28775 16.7344 7.28774 16.7321 7.29004C16.7229 7.29694 16.7137 7.30384 16.7045 7.31304C16.6999 7.31764 16.6953 7.31994 16.6907 7.32454C16.6861 7.32914 16.6792 7.33374 16.6746 7.33834C16.6654 7.34524 16.6585 7.35214 16.6516 7.35904C16.6493 7.36134 16.6493 7.36134 16.647 7.36364C16.6355 7.37514 16.624 7.38434 16.6125 7.39584L12.3254 11.6829L2.03783 21.9728C-0.032107 24.3624 -0.572589 27.7157 0.637173 30.632Z" fill="url(#paint3_linear_301_16)"/>
<path d="M81.0692 45.2789H72.8077V15.1819H81.0692C83.2125 15.1819 85.2012 15.5644 87.0354 16.3295C88.8696 17.0946 90.4783 18.1662 91.8616 19.5444C93.2397 20.9175 94.3164 22.5161 95.0917 24.3402C95.8618 26.1642 96.2469 28.1327 96.2469 30.2456C96.2469 32.3736 95.8644 34.3472 95.0993 36.1662C94.3342 37.9852 93.26 39.5787 91.8768 40.9467C90.4986 42.3148 88.8873 43.3788 87.043 44.1388C85.2037 44.8988 83.2125 45.2789 81.0692 45.2789ZM78.7207 20.4716V39.9891H80.4156C81.7786 39.9891 83.0377 39.7459 84.1929 39.2595C85.3481 38.773 86.3514 38.0916 87.2026 37.215C88.0538 36.3384 88.7151 35.3073 89.1863 34.1217C89.6626 32.9361 89.9007 31.6389 89.9007 30.2304C89.9007 28.8319 89.6626 27.5399 89.1863 26.3542C88.7151 25.1686 88.0538 24.135 87.2026 23.2533C86.3514 22.3717 85.3481 21.6877 84.1929 21.2013C83.0377 20.7149 81.7786 20.4716 80.4156 20.4716H78.7207ZM106.826 54.764H100.427L106.462 42.9456L97.577 26.5974H103.999L109.73 37.5418L114.685 26.5974H121.107L106.826 54.764ZM129.79 45.2789H124.188V26.5974H129.79V28.6799C130.509 27.8794 131.406 27.2359 132.48 26.7494C133.56 26.263 134.748 26.0198 136.045 26.0198C137.484 26.0198 138.745 26.3314 139.83 26.9547C140.919 27.5829 141.775 28.4519 142.399 29.5615C143.017 30.6762 143.326 31.9759 143.326 33.4605V45.2789H137.725V34.6461C137.725 33.3085 137.375 32.2647 136.676 31.5148C135.976 30.77 135.019 30.3976 133.803 30.3976C132.977 30.3976 132.262 30.5648 131.66 30.8992C131.057 31.2336 130.595 31.6896 130.276 32.2672C129.952 32.8448 129.79 33.4985 129.79 34.2281V45.2789ZM157.333 45.8641C155.621 45.8641 154.063 45.4359 152.659 44.5796C151.25 43.7183 150.136 42.5377 149.315 41.0379C148.494 39.5381 148.084 37.8255 148.084 35.9001C148.084 34.0305 148.479 32.3508 149.269 30.8612C150.06 29.3715 151.152 28.191 152.545 27.3195C153.938 26.453 155.534 26.0198 157.333 26.0198C158.661 26.0198 159.899 26.2706 161.05 26.7722C162.195 27.2789 163.132 27.9807 163.862 28.8775V26.5974H169.463V45.2789H163.862V42.8164C163.011 43.7993 162.033 44.5543 160.928 45.0813C159.823 45.6031 158.625 45.8641 157.333 45.8641ZM158.998 41.0987C159.97 41.0987 160.832 40.8783 161.582 40.4375C162.337 39.9916 162.927 39.3811 163.353 38.6058C163.778 37.8255 163.991 36.9363 163.991 35.9381C163.991 34.9298 163.776 34.0406 163.345 33.2705C162.914 32.4952 162.324 31.8872 161.574 31.4464C160.829 31.0005 159.97 30.7776 158.998 30.7776C158.035 30.7776 157.176 31.0005 156.421 31.4464C155.666 31.8872 155.071 32.4978 154.635 33.2781C154.199 34.0533 153.981 34.94 153.981 35.9381C153.981 36.9363 154.197 37.8255 154.627 38.6058C155.058 39.3811 155.651 39.9916 156.406 40.4375C157.161 40.8783 158.025 41.0987 158.998 41.0987ZM181.648 45.2789H176.046V26.5974H181.648V28.6799C182.575 27.7577 183.495 27.0839 184.407 26.6582C185.319 26.2326 186.302 26.0198 187.356 26.0198C188.795 26.0198 190.092 26.3416 191.247 26.9851C192.402 27.6285 193.228 28.4924 193.725 29.5767C194.637 28.3962 195.615 27.5069 196.658 26.9091C197.707 26.3162 198.906 26.0198 200.253 26.0198C201.606 26.0198 202.804 26.2985 203.848 26.8559C204.892 27.4132 205.715 28.2062 206.318 29.2347C206.921 30.2633 207.223 31.4768 207.223 32.8753V45.2789H201.621V34.4105C201.621 33.1945 201.305 32.2368 200.671 31.5376C200.043 30.8384 199.199 30.4888 198.14 30.4888C197.411 30.4888 196.77 30.6408 196.218 30.9448C195.66 31.2488 195.224 31.6541 194.91 32.1608C194.596 32.6726 194.439 33.2401 194.439 33.8633V45.2789H188.838V34.2965C188.838 33.1413 188.531 32.2166 187.918 31.5224C187.3 30.8333 186.451 30.4888 185.372 30.4888C184.652 30.4888 184.012 30.6408 183.449 30.9448C182.882 31.2488 182.441 31.6617 182.127 32.1836C181.807 32.7055 181.648 33.2831 181.648 33.9165V45.2789ZM219.099 45.2789H213.497V26.5974H219.099V45.2789ZM216.31 22.7137C215.702 22.7137 215.144 22.5642 214.638 22.2653C214.131 21.9714 213.725 21.5686 213.421 21.0569C213.117 20.5451 212.965 19.9852 212.965 19.3772C212.965 18.7692 213.117 18.2169 213.421 17.7204C213.725 17.2187 214.131 16.8185 214.638 16.5195C215.144 16.2256 215.702 16.0787 216.31 16.0787C216.918 16.0787 217.47 16.2256 217.966 16.5195C218.463 16.8185 218.861 17.2187 219.16 17.7204C219.459 18.2169 219.608 18.7692 219.608 19.3772C219.608 19.9852 219.459 20.5451 219.16 21.0569C218.861 21.5686 218.463 21.9714 217.966 22.2653C217.47 22.5642 216.918 22.7137 216.31 22.7137ZM234.438 45.8641C233.014 45.8641 231.674 45.6082 230.417 45.0964C229.156 44.5847 228.046 43.8753 227.088 42.9684C226.126 42.0665 225.371 41.0151 224.823 39.8143C224.276 38.6185 224.003 37.3341 224.003 35.961C224.003 34.6334 224.261 33.3743 224.778 32.1836C225.295 30.9929 226.024 29.934 226.967 29.0067C227.909 28.0846 229.016 27.3549 230.288 26.8179C231.56 26.2858 232.938 26.0198 234.422 26.0198C235.623 26.0198 236.781 26.1896 237.896 26.529C239.005 26.8685 239.902 27.3068 240.586 27.8439L238.671 31.6136C237.759 30.9448 236.627 30.6104 235.274 30.6104C234.118 30.6104 233.141 30.8663 232.34 31.378C231.539 31.8898 230.929 32.5535 230.508 33.3693C230.088 34.185 229.878 35.0413 229.878 35.9381C229.878 36.9262 230.103 37.823 230.554 38.6286C231.005 39.4393 231.641 40.0803 232.462 40.5515C233.282 41.0278 234.232 41.2659 235.312 41.2659C235.981 41.2659 236.606 41.1747 237.189 40.9923C237.777 40.8099 238.271 40.5667 238.671 40.2627L240.586 44.04C239.892 44.5619 238.998 44.9951 237.903 45.3397C236.809 45.6893 235.654 45.8641 234.438 45.8641ZM261.656 45.2789H255.743V15.1819H261.656V27.6007H272.904V15.1819H278.802V45.2789H272.904V32.784H261.656V45.2789ZM295.196 45.8641C293.179 45.8641 291.37 45.4283 289.769 44.5568C288.173 43.6904 286.906 42.5073 285.969 41.0075C285.032 39.5128 284.563 37.823 284.563 35.9381C284.563 34.5549 284.826 33.2603 285.353 32.0544C285.885 30.8485 286.625 29.7946 287.573 28.8927C288.52 27.9858 289.62 27.2789 290.871 26.7722C292.128 26.2706 293.486 26.0198 294.945 26.0198C296.89 26.0198 298.595 26.4226 300.06 27.2283C301.524 28.039 302.667 29.1613 303.487 30.5952C304.308 32.0291 304.719 33.7011 304.719 35.6113C304.719 35.7684 304.716 35.9052 304.711 36.0218C304.706 36.1383 304.683 36.3536 304.643 36.6678H290.324C290.324 37.6153 290.542 38.4437 290.977 39.1531C291.408 39.8573 292.011 40.4071 292.786 40.8023C293.567 41.1975 294.474 41.3951 295.507 41.3951C296.48 41.3951 297.341 41.2051 298.091 40.8251C298.836 40.4502 299.556 39.8497 300.25 39.0239L304.278 41.0455C303.406 42.5554 302.168 43.736 300.561 44.5872C298.955 45.4385 297.167 45.8641 295.196 45.8641ZM290.529 33.5669H299.209C299.087 32.8524 298.829 32.2318 298.433 31.7048C298.038 31.1829 297.536 30.7826 296.928 30.504C296.32 30.2253 295.634 30.086 294.869 30.086C294.053 30.086 293.336 30.2253 292.718 30.504C292.095 30.7826 291.596 31.1829 291.221 31.7048C290.846 32.2318 290.615 32.8524 290.529 33.5669ZM317.394 45.8641C315.682 45.8641 314.124 45.4359 312.72 44.5796C311.312 43.7183 310.197 42.5377 309.376 41.0379C308.555 39.5381 308.145 37.8255 308.145 35.9001C308.145 34.0305 308.54 32.3508 309.331 30.8612C310.121 29.3715 311.213 28.191 312.606 27.3195C314 26.453 315.596 26.0198 317.394 26.0198C318.722 26.0198 319.961 26.2706 321.111 26.7722C322.256 27.2789 323.193 27.9807 323.923 28.8775V26.5974H329.524V45.2789H323.923V42.8164C323.072 43.7993 322.094 44.5543 320.989 45.0813C319.885 45.6031 318.686 45.8641 317.394 45.8641ZM319.059 41.0987C320.032 41.0987 320.893 40.8783 321.643 40.4375C322.398 39.9916 322.988 39.3811 323.414 38.6058C323.839 37.8255 324.052 36.9363 324.052 35.9381C324.052 34.9298 323.837 34.0406 323.406 33.2705C322.976 32.4952 322.385 31.8872 321.635 31.4464C320.891 31.0005 320.032 30.7776 319.059 30.7776C318.096 30.7776 317.237 31.0005 316.482 31.4464C315.727 31.8872 315.132 32.4978 314.696 33.2781C314.261 34.0533 314.043 34.94 314.043 35.9381C314.043 36.9363 314.258 37.8255 314.689 38.6058C315.119 39.3811 315.712 39.9916 316.467 40.4375C317.222 40.8783 318.086 41.0987 319.059 41.0987ZM343.845 45.8641C342.152 45.8641 340.612 45.441 339.224 44.5948C337.83 43.7487 336.721 42.5782 335.895 41.0835C335.064 39.5888 334.648 37.8737 334.648 35.9381C334.648 34.0432 335.051 32.3508 335.857 30.8612C336.657 29.3715 337.76 28.191 339.163 27.3195C340.572 26.453 342.18 26.0198 343.989 26.0198C345.301 26.0198 346.518 26.2706 347.637 26.7722C348.757 27.2789 349.687 27.9807 350.427 28.8775V13.905H356.028V45.2789H350.427V42.8164C349.601 43.7791 348.623 44.5264 347.493 45.0584C346.363 45.5955 345.147 45.8641 343.845 45.8641ZM345.524 41.0987C346.507 41.0987 347.376 40.8783 348.131 40.4375C348.886 39.9916 349.479 39.3811 349.91 38.6058C350.34 37.8255 350.556 36.9439 350.556 35.961C350.556 34.9628 350.34 34.0736 349.91 33.2933C349.479 32.518 348.886 31.905 348.131 31.454C347.376 31.0031 346.512 30.7776 345.54 30.7776C344.582 30.7776 343.728 31.0031 342.978 31.454C342.228 31.905 341.636 32.5206 341.2 33.3009C340.764 34.0862 340.546 34.978 340.546 35.9762C340.546 36.9591 340.759 37.8382 341.185 38.6134C341.61 39.3836 342.198 39.9916 342.948 40.4375C343.703 40.8783 344.562 41.0987 345.524 41.0987ZM371.587 45.8641C369.571 45.8641 367.762 45.4283 366.161 44.5568C364.565 43.6904 363.298 42.5073 362.361 41.0075C361.423 39.5128 360.954 37.823 360.954 35.9381C360.954 34.5549 361.218 33.2603 361.745 32.0544C362.277 30.8485 363.017 29.7946 363.964 28.8927C364.912 27.9858 366.011 27.2789 367.263 26.7722C368.519 26.2706 369.877 26.0198 371.336 26.0198C373.282 26.0198 374.987 26.4226 376.451 27.2283C377.916 28.039 379.058 29.1613 379.879 30.5952C380.7 32.0291 381.11 33.7011 381.11 35.6113C381.11 35.7684 381.108 35.9052 381.103 36.0218C381.098 36.1383 381.075 36.3536 381.034 36.6678H366.715C366.715 37.6153 366.933 38.4437 367.369 39.1531C367.8 39.8573 368.403 40.4071 369.178 40.8023C369.958 41.1975 370.865 41.3951 371.899 41.3951C372.872 41.3951 373.733 41.2051 374.483 40.8251C375.228 40.4502 375.947 39.8497 376.641 39.0239L380.67 41.0455C379.798 42.5554 378.559 43.736 376.953 44.5872C375.347 45.4385 373.558 45.8641 371.587 45.8641ZM366.921 33.5669H375.6C375.479 32.8524 375.22 32.2318 374.825 31.7048C374.43 31.1829 373.928 30.7826 373.32 30.504C372.712 30.2253 372.026 30.086 371.26 30.086C370.445 30.086 369.728 30.2253 369.11 30.504C368.486 30.7826 367.987 31.1829 367.612 31.7048C367.237 32.2318 367.007 32.8524 366.921 33.5669ZM391.707 45.2789H386.105V26.5974H391.707V29.2803C392.401 28.2366 393.249 27.4309 394.253 26.8635C395.256 26.301 396.335 26.0198 397.49 26.0198C398.149 26.0198 398.831 26.1161 399.535 26.3086C400.239 26.5012 400.829 26.7494 401.306 27.0535L398.965 31.7808C398.554 31.5021 398.073 31.2792 397.521 31.112C396.963 30.9499 396.449 30.8688 395.978 30.8688C395.248 30.8688 394.554 31.0563 393.895 31.4312C393.242 31.8112 392.712 32.3027 392.307 32.9057C391.907 33.5035 391.707 34.1496 391.707 34.8437V45.2789Z" fill="#6490FA"/>
<defs>
<linearGradient id="paint0_linear_301_16" x1="2388.27" y1="1700.82" x2="1315.99" y2="-209.228" gradientUnits="userSpaceOnUse">
<stop stop-color="#6490FA"/>
<stop offset="1" stop-color="#6490FA" stop-opacity="0"/>
</linearGradient>
<linearGradient id="paint1_linear_301_16" x1="2371.27" y1="1747.82" x2="1291.97" y2="-166.896" gradientUnits="userSpaceOnUse">
<stop stop-color="#6490FA" stop-opacity="0"/>
<stop offset="1" stop-color="#6490FA"/>
</linearGradient>
<linearGradient id="paint2_linear_301_16" x1="266.629" y1="2389.01" x2="2181.05" y2="1309.52" gradientUnits="userSpaceOnUse">
<stop stop-color="#6490FA"/>
<stop offset="1" stop-color="#6490FA" stop-opacity="0"/>
</linearGradient>
<linearGradient id="paint3_linear_301_16" x1="227.101" y1="2371.52" x2="2141.49" y2="1292.28" gradientUnits="userSpaceOnUse">
<stop stop-color="#6490FA" stop-opacity="0"/>
<stop offset="1" stop-color="#6490FA"/>
</linearGradient>
</defs>
</svg>
